<mxfile host="app.diagrams.net" modified="2024-04-23T12:14:53.737Z" agent="Mozilla/5.0 (Windows NT 10.0; Win64; x64) AppleWebKit/537.36 (KHTML, like Gecko) Chrome/122.0.0.0 Safari/537.36" etag="p6xUSNdZkSAFK9l0a3ip" version="24.2.5" type="github">
  <diagram id="C5RBs43oDa-KdzZeNtuy" name="Page-1">
    <mxGraphModel dx="842" dy="523" grid="1" gridSize="10" guides="1" tooltips="1" connect="1" arrows="1" fold="1" page="1" pageScale="1" pageWidth="827" pageHeight="1169" math="0" shadow="0">
      <root>
        <mxCell id="WIyWlLk6GJQsqaUBKTNV-0" />
        <mxCell id="WIyWlLk6GJQsqaUBKTNV-1" parent="WIyWlLk6GJQsqaUBKTNV-0" />
        <mxCell id="V3dzcObgZ_ysOxRRDQxj-10" value="Carly" style="rounded=0;whiteSpace=wrap;html=1;align=left;" vertex="1" parent="WIyWlLk6GJQsqaUBKTNV-1">
          <mxGeometry x="315" y="100" width="290" height="30" as="geometry" />
        </mxCell>
        <mxCell id="V3dzcObgZ_ysOxRRDQxj-11" value="+InteractLineTraceLength: float&lt;div&gt;+bHasWeapon: bool&lt;/div&gt;" style="rounded=0;whiteSpace=wrap;html=1;align=left;" vertex="1" parent="WIyWlLk6GJQsqaUBKTNV-1">
          <mxGeometry x="315" y="130" width="290" height="30" as="geometry" />
        </mxCell>
        <mxCell id="V3dzcObgZ_ysOxRRDQxj-12" value="&lt;div&gt;&lt;span style=&quot;background-color: initial;&quot;&gt;+SetupPlayerInputComponent(): virtual void&lt;/span&gt;&lt;br&gt;&lt;/div&gt;&lt;div&gt;+CameraSwitch(): void&lt;/div&gt;&lt;div&gt;+DefaultCamera(): void&lt;/div&gt;&lt;div&gt;+Move(): void&lt;/div&gt;&lt;div&gt;+Look(): void&lt;/div&gt;&lt;div&gt;+InteractWithObject(): void&lt;/div&gt;&lt;div&gt;+SetHasWeapon(): void&lt;/div&gt;&lt;div&gt;+GetHasWeapon(): bool&lt;/div&gt;" style="rounded=0;whiteSpace=wrap;html=1;align=left;" vertex="1" parent="WIyWlLk6GJQsqaUBKTNV-1">
          <mxGeometry x="315" y="160" width="290" height="120" as="geometry" />
        </mxCell>
        <mxCell id="V3dzcObgZ_ysOxRRDQxj-23" value="Character" style="rounded=0;whiteSpace=wrap;html=1;align=left;" vertex="1" parent="WIyWlLk6GJQsqaUBKTNV-1">
          <mxGeometry x="400" y="30" width="120" height="20" as="geometry" />
        </mxCell>
        <mxCell id="V3dzcObgZ_ysOxRRDQxj-24" value="" style="endArrow=classic;html=1;rounded=0;entryX=0.5;entryY=1;entryDx=0;entryDy=0;exitX=0.5;exitY=0;exitDx=0;exitDy=0;" edge="1" parent="WIyWlLk6GJQsqaUBKTNV-1" source="V3dzcObgZ_ysOxRRDQxj-10" target="V3dzcObgZ_ysOxRRDQxj-23">
          <mxGeometry width="50" height="50" relative="1" as="geometry">
            <mxPoint x="490" y="240" as="sourcePoint" />
            <mxPoint x="540" y="190" as="targetPoint" />
          </mxGeometry>
        </mxCell>
        <mxCell id="V3dzcObgZ_ysOxRRDQxj-25" value="G9FPSSkeletalMeshComponent (Weapon)" style="swimlane;fontStyle=1;align=left;verticalAlign=top;childLayout=stackLayout;horizontal=1;startSize=26;horizontalStack=0;resizeParent=1;resizeParentMax=0;resizeLast=0;collapsible=1;marginBottom=0;whiteSpace=wrap;html=1;" vertex="1" parent="WIyWlLk6GJQsqaUBKTNV-1">
          <mxGeometry x="40" y="310" width="250" height="208" as="geometry" />
        </mxCell>
        <mxCell id="V3dzcObgZ_ysOxRRDQxj-26" value="+GunTipOffset: FVector&lt;div&gt;+FireImc: UInputMappingContext*&lt;/div&gt;&lt;div&gt;+FireAction: UInputAction*&lt;/div&gt;&lt;div&gt;+FireSound: USoundBase*&lt;/div&gt;&lt;div&gt;+FireAnimation: UAnimMontage*&lt;/div&gt;" style="text;strokeColor=none;fillColor=none;align=left;verticalAlign=top;spacingLeft=4;spacingRight=4;overflow=hidden;rotatable=0;points=[[0,0.5],[1,0.5]];portConstraint=eastwest;whiteSpace=wrap;html=1;" vertex="1" parent="V3dzcObgZ_ysOxRRDQxj-25">
          <mxGeometry y="26" width="250" height="84" as="geometry" />
        </mxCell>
        <mxCell id="V3dzcObgZ_ysOxRRDQxj-27" value="" style="line;strokeWidth=1;fillColor=none;align=left;verticalAlign=middle;spacingTop=-1;spacingLeft=3;spacingRight=3;rotatable=0;labelPosition=right;points=[];portConstraint=eastwest;strokeColor=inherit;" vertex="1" parent="V3dzcObgZ_ysOxRRDQxj-25">
          <mxGeometry y="110" width="250" height="8" as="geometry" />
        </mxCell>
        <mxCell id="V3dzcObgZ_ysOxRRDQxj-28" value="+AttachComponentToPlayer(): void&lt;div&gt;+EndPlay(): void&lt;/div&gt;&lt;div&gt;+Fire(): void&lt;/div&gt;" style="text;strokeColor=none;fillColor=none;align=left;verticalAlign=top;spacingLeft=4;spacingRight=4;overflow=hidden;rotatable=0;points=[[0,0.5],[1,0.5]];portConstraint=eastwest;whiteSpace=wrap;html=1;" vertex="1" parent="V3dzcObgZ_ysOxRRDQxj-25">
          <mxGeometry y="118" width="250" height="90" as="geometry" />
        </mxCell>
      </root>
    </mxGraphModel>
  </diagram>
</mxfile>
